<mxfile host="app.diagrams.net" agent="Mozilla/5.0 (Windows NT 10.0; Win64; x64) AppleWebKit/537.36 (KHTML, like Gecko) Chrome/133.0.0.0 Safari/537.36 OPR/118.0.0.0" version="27.0.6">
  <diagram name="Página-1" id="YTrZ0npvCMR0PXq6Pyax">
    <mxGraphModel grid="1" page="1" gridSize="10" guides="1" tooltips="1" connect="1" arrows="1" fold="1" pageScale="1" pageWidth="827" pageHeight="1169" math="0" shadow="0">
      <root>
        <mxCell id="0" />
        <mxCell id="1" parent="0" />
        <mxCell id="9I4Q3gnnUnu0WXX-VrlD-17" value=":Batalha" style="shape=umlLifeline;perimeter=lifelinePerimeter;whiteSpace=wrap;html=1;container=0;dropTarget=0;collapsible=0;recursiveResize=0;outlineConnect=0;portConstraint=eastwest;newEdgeStyle={&quot;edgeStyle&quot;:&quot;elbowEdgeStyle&quot;,&quot;elbow&quot;:&quot;vertical&quot;,&quot;curved&quot;:0,&quot;rounded&quot;:0};" vertex="1" parent="1">
          <mxGeometry x="-300" y="-660" width="130" height="200" as="geometry" />
        </mxCell>
        <mxCell id="9I4Q3gnnUnu0WXX-VrlD-22" style="edgeStyle=orthogonalEdgeStyle;rounded=0;orthogonalLoop=1;jettySize=auto;html=1;curved=0;endArrow=classic;endFill=1;" edge="1" parent="1">
          <mxGeometry relative="1" as="geometry">
            <mxPoint x="-460" y="-530" as="sourcePoint" />
            <mxPoint x="-233.87999999999977" y="-529.66" as="targetPoint" />
            <Array as="points">
              <mxPoint x="-460.38" y="-529.66" />
            </Array>
          </mxGeometry>
        </mxCell>
        <mxCell id="9I4Q3gnnUnu0WXX-VrlD-23" value="3: setCenario(pathCenario)" style="text;whiteSpace=wrap;html=1;" vertex="1" parent="1">
          <mxGeometry x="-428.38" y="-529.66" width="160" height="30" as="geometry" />
        </mxCell>
        <mxCell id="9I4Q3gnnUnu0WXX-VrlD-24" value=":TelaSeleçãoCenário" style="shape=umlLifeline;perimeter=lifelinePerimeter;whiteSpace=wrap;html=1;container=0;dropTarget=0;collapsible=0;recursiveResize=0;outlineConnect=0;portConstraint=eastwest;newEdgeStyle={&quot;edgeStyle&quot;:&quot;elbowEdgeStyle&quot;,&quot;elbow&quot;:&quot;vertical&quot;,&quot;curved&quot;:0,&quot;rounded&quot;:0};" vertex="1" parent="1">
          <mxGeometry x="-545" y="-660" width="160" height="220" as="geometry" />
        </mxCell>
        <mxCell id="Xt5AVEhu-o9f6wJkTJ69-5" value="" style="shape=umlDestroy;whiteSpace=wrap;html=1;strokeWidth=3;targetShapes=umlLifeline;" vertex="1" parent="9I4Q3gnnUnu0WXX-VrlD-24">
          <mxGeometry x="65" y="190" width="30" height="30" as="geometry" />
        </mxCell>
        <mxCell id="Xt5AVEhu-o9f6wJkTJ69-21" value="" style="html=1;points=[];perimeter=orthogonalPerimeter;outlineConnect=0;targetShapes=umlLifeline;portConstraint=eastwest;newEdgeStyle={&quot;edgeStyle&quot;:&quot;elbowEdgeStyle&quot;,&quot;elbow&quot;:&quot;vertical&quot;,&quot;curved&quot;:0,&quot;rounded&quot;:0};" vertex="1" parent="9I4Q3gnnUnu0WXX-VrlD-24">
          <mxGeometry x="75" y="120" width="10" height="30" as="geometry" />
        </mxCell>
        <mxCell id="9I4Q3gnnUnu0WXX-VrlD-40" value="Usuario" style="shape=umlActor;verticalLabelPosition=bottom;verticalAlign=top;html=1;" vertex="1" parent="1">
          <mxGeometry x="-660" y="-960" width="30" height="60" as="geometry" />
        </mxCell>
        <mxCell id="9I4Q3gnnUnu0WXX-VrlD-41" value="" style="endArrow=none;dashed=1;endFill=0;endSize=12;html=1;rounded=0;startFill=0;" edge="1" parent="1">
          <mxGeometry width="160" relative="1" as="geometry">
            <mxPoint x="-645" y="-870" as="sourcePoint" />
            <mxPoint x="-645" y="-710" as="targetPoint" />
            <Array as="points">
              <mxPoint x="-645" y="-760" />
            </Array>
          </mxGeometry>
        </mxCell>
        <mxCell id="9I4Q3gnnUnu0WXX-VrlD-42" value="" style="endArrow=classic;endFill=1;endSize=12;html=1;rounded=0;" edge="1" parent="1" target="9I4Q3gnnUnu0WXX-VrlD-60">
          <mxGeometry width="160" relative="1" as="geometry">
            <mxPoint x="-680" y="-580" as="sourcePoint" />
            <mxPoint x="-518" y="-575" as="targetPoint" />
          </mxGeometry>
        </mxCell>
        <mxCell id="9I4Q3gnnUnu0WXX-VrlD-43" value="1: setSelecaoCenario()" style="text;whiteSpace=wrap;html=1;" vertex="1" parent="1">
          <mxGeometry x="-640" y="-606.5" width="240" height="25" as="geometry" />
        </mxCell>
        <mxCell id="9I4Q3gnnUnu0WXX-VrlD-52" value=":TelaConfiguraçãoBatalha" style="shape=umlLifeline;perimeter=lifelinePerimeter;whiteSpace=wrap;html=1;container=0;dropTarget=0;collapsible=0;recursiveResize=0;outlineConnect=0;portConstraint=eastwest;newEdgeStyle={&quot;edgeStyle&quot;:&quot;elbowEdgeStyle&quot;,&quot;elbow&quot;:&quot;vertical&quot;,&quot;curved&quot;:0,&quot;rounded&quot;:0};" vertex="1" parent="1">
          <mxGeometry x="-765" y="-660" width="160" height="200" as="geometry" />
        </mxCell>
        <mxCell id="9I4Q3gnnUnu0WXX-VrlD-53" value="" style="html=1;points=[];perimeter=orthogonalPerimeter;outlineConnect=0;targetShapes=umlLifeline;portConstraint=eastwest;newEdgeStyle={&quot;edgeStyle&quot;:&quot;elbowEdgeStyle&quot;,&quot;elbow&quot;:&quot;vertical&quot;,&quot;curved&quot;:0,&quot;rounded&quot;:0};" vertex="1" parent="9I4Q3gnnUnu0WXX-VrlD-52">
          <mxGeometry x="75" y="70" width="10" height="30" as="geometry" />
        </mxCell>
        <mxCell id="9I4Q3gnnUnu0WXX-VrlD-60" value="" style="html=1;points=[];perimeter=orthogonalPerimeter;outlineConnect=0;targetShapes=umlLifeline;portConstraint=eastwest;newEdgeStyle={&quot;edgeStyle&quot;:&quot;elbowEdgeStyle&quot;,&quot;elbow&quot;:&quot;vertical&quot;,&quot;curved&quot;:0,&quot;rounded&quot;:0};" vertex="1" parent="1">
          <mxGeometry x="-470" y="-581.5" width="10" height="33" as="geometry" />
        </mxCell>
        <mxCell id="Xt5AVEhu-o9f6wJkTJ69-2" value="1: Iniciar &quot;seleção de cenário&quot;" style="text;whiteSpace=wrap;html=1;" vertex="1" parent="1">
          <mxGeometry x="-562.5" y="-875.08" width="165" height="25" as="geometry" />
        </mxCell>
        <mxCell id="Xt5AVEhu-o9f6wJkTJ69-3" value="" style="endArrow=classic;endFill=1;endSize=12;html=1;rounded=0;" edge="1" parent="1" target="Xt5AVEhu-o9f6wJkTJ69-8">
          <mxGeometry width="160" relative="1" as="geometry">
            <mxPoint x="-640" y="-845.5" as="sourcePoint" />
            <mxPoint x="-390" y="-845.5" as="targetPoint" />
          </mxGeometry>
        </mxCell>
        <mxCell id="Xt5AVEhu-o9f6wJkTJ69-6" value=":Sistema" style="shape=umlLifeline;perimeter=lifelinePerimeter;whiteSpace=wrap;html=1;container=0;dropTarget=0;collapsible=0;recursiveResize=0;outlineConnect=0;portConstraint=eastwest;newEdgeStyle={&quot;edgeStyle&quot;:&quot;elbowEdgeStyle&quot;,&quot;elbow&quot;:&quot;vertical&quot;,&quot;curved&quot;:0,&quot;rounded&quot;:0};" vertex="1" parent="1">
          <mxGeometry x="-400" y="-930" width="130" height="220" as="geometry" />
        </mxCell>
        <mxCell id="Xt5AVEhu-o9f6wJkTJ69-8" value="" style="html=1;points=[];perimeter=orthogonalPerimeter;outlineConnect=0;targetShapes=umlLifeline;portConstraint=eastwest;newEdgeStyle={&quot;edgeStyle&quot;:&quot;elbowEdgeStyle&quot;,&quot;elbow&quot;:&quot;vertical&quot;,&quot;curved&quot;:0,&quot;rounded&quot;:0};" vertex="1" parent="Xt5AVEhu-o9f6wJkTJ69-6">
          <mxGeometry x="60" y="50" width="10" height="70" as="geometry" />
        </mxCell>
        <mxCell id="Xt5AVEhu-o9f6wJkTJ69-11" value="" style="html=1;points=[];perimeter=orthogonalPerimeter;outlineConnect=0;targetShapes=umlLifeline;portConstraint=eastwest;newEdgeStyle={&quot;edgeStyle&quot;:&quot;elbowEdgeStyle&quot;,&quot;elbow&quot;:&quot;vertical&quot;,&quot;curved&quot;:0,&quot;rounded&quot;:0};" vertex="1" parent="Xt5AVEhu-o9f6wJkTJ69-6">
          <mxGeometry x="60" y="140" width="10" height="40" as="geometry" />
        </mxCell>
        <mxCell id="Xt5AVEhu-o9f6wJkTJ69-12" value="" style="endArrow=classic;endFill=1;endSize=12;html=1;rounded=0;" edge="1" parent="Xt5AVEhu-o9f6wJkTJ69-6">
          <mxGeometry width="160" relative="1" as="geometry">
            <mxPoint x="-240" y="150" as="sourcePoint" />
            <mxPoint x="60" y="150.5" as="targetPoint" />
          </mxGeometry>
        </mxCell>
        <mxCell id="Xt5AVEhu-o9f6wJkTJ69-14" value="&amp;lt;&amp;lt;cenário selecionado&amp;gt;&amp;gt;" style="html=1;verticalAlign=bottom;endArrow=open;dashed=1;endSize=8;curved=0;rounded=0;" edge="1" parent="Xt5AVEhu-o9f6wJkTJ69-6">
          <mxGeometry relative="1" as="geometry">
            <mxPoint x="60.25" y="180" as="sourcePoint" />
            <mxPoint x="-235.25" y="180" as="targetPoint" />
          </mxGeometry>
        </mxCell>
        <mxCell id="Xt5AVEhu-o9f6wJkTJ69-7" value="" style="html=1;points=[];perimeter=orthogonalPerimeter;outlineConnect=0;targetShapes=umlLifeline;portConstraint=eastwest;newEdgeStyle={&quot;edgeStyle&quot;:&quot;elbowEdgeStyle&quot;,&quot;elbow&quot;:&quot;vertical&quot;,&quot;curved&quot;:0,&quot;rounded&quot;:0};" vertex="1" parent="1">
          <mxGeometry x="-650" y="-860" width="10" height="120" as="geometry" />
        </mxCell>
        <mxCell id="Xt5AVEhu-o9f6wJkTJ69-9" value="&amp;lt;&amp;lt;mostra ícones dos cenários&amp;gt;&amp;gt;" style="html=1;verticalAlign=bottom;endArrow=open;dashed=1;endSize=8;curved=0;rounded=0;" edge="1" parent="1">
          <mxGeometry relative="1" as="geometry">
            <mxPoint x="-345" y="-820" as="sourcePoint" />
            <mxPoint x="-640.5" y="-820" as="targetPoint" />
          </mxGeometry>
        </mxCell>
        <mxCell id="Xt5AVEhu-o9f6wJkTJ69-13" value="2: escolhe cenário ()" style="text;whiteSpace=wrap;html=1;" vertex="1" parent="1">
          <mxGeometry x="-550" y="-800" width="165" height="17.5" as="geometry" />
        </mxCell>
        <mxCell id="Xt5AVEhu-o9f6wJkTJ69-16" value="Banco de Dados&lt;div&gt;(Repository)&lt;/div&gt;" style="shape=cylinder3;whiteSpace=wrap;html=1;boundedLbl=1;backgroundOutline=1;size=15;" vertex="1" parent="1">
          <mxGeometry x="-40" y="-700" width="70" height="90" as="geometry" />
        </mxCell>
        <mxCell id="Xt5AVEhu-o9f6wJkTJ69-17" value="" style="endArrow=none;dashed=1;html=1;rounded=0;" edge="1" parent="1" target="Xt5AVEhu-o9f6wJkTJ69-16">
          <mxGeometry width="50" height="50" relative="1" as="geometry">
            <mxPoint x="-5" y="-460" as="sourcePoint" />
            <mxPoint x="-10.240000000000009" y="-610" as="targetPoint" />
          </mxGeometry>
        </mxCell>
        <mxCell id="Xt5AVEhu-o9f6wJkTJ69-18" value="" style="endArrow=classic;endFill=1;endSize=12;html=1;rounded=0;" edge="1" parent="1">
          <mxGeometry width="160" relative="1" as="geometry">
            <mxPoint x="-460" y="-570" as="sourcePoint" />
            <mxPoint x="-5" y="-570" as="targetPoint" />
          </mxGeometry>
        </mxCell>
        <mxCell id="Xt5AVEhu-o9f6wJkTJ69-19" value="2: getCenarios()" style="text;whiteSpace=wrap;html=1;" vertex="1" parent="1">
          <mxGeometry x="-413" y="-599" width="160" height="30" as="geometry" />
        </mxCell>
        <mxCell id="Xt5AVEhu-o9f6wJkTJ69-20" value="" style="html=1;verticalAlign=bottom;endArrow=open;dashed=1;endSize=8;curved=0;rounded=0;" edge="1" parent="1">
          <mxGeometry relative="1" as="geometry">
            <mxPoint x="-10" y="-550" as="sourcePoint" />
            <mxPoint x="-460" y="-550.34" as="targetPoint" />
          </mxGeometry>
        </mxCell>
        <mxCell id="Xt5AVEhu-o9f6wJkTJ69-22" value="Diagrama de Interação" style="text;strokeColor=none;fillColor=none;html=1;fontSize=24;fontStyle=1;verticalAlign=middle;align=center;" vertex="1" parent="1">
          <mxGeometry x="-558.38" y="-970" width="290" height="30" as="geometry" />
        </mxCell>
        <mxCell id="Xt5AVEhu-o9f6wJkTJ69-23" value="Diagrama de Sequência" style="text;strokeColor=none;fillColor=none;html=1;fontSize=24;fontStyle=1;verticalAlign=middle;align=center;" vertex="1" parent="1">
          <mxGeometry x="-605" y="-690" width="290" height="30" as="geometry" />
        </mxCell>
      </root>
    </mxGraphModel>
  </diagram>
</mxfile>
